<?xml version="1.0" encoding="iso-8859-1"?>
<!-- Generator: Adobe Illustrator 19.0.0, SVG Export Plug-In . SVG Version: 6.00 Build 0)  -->
<svg version="1.1" id="Capa_1" xmlns="http://www.w3.org/2000/svg" xmlns:xlink="http://www.w3.org/1999/xlink" x="0px" y="0px"
	 viewBox="0 0 511.999 511.999" style="enable-background:new 0 0 511.999 511.999;" xml:space="preserve">
<path style="fill:#F56C6C;" d="M256,0C154.535,0,71.987,82.548,71.987,184.013c0,32.284,9.494,69.595,28.216,110.897
	c14.802,32.652,35.403,67.943,61.233,104.889c43.85,62.723,88.345,109.31,88.789,109.773c3.104,3.236,8.444,3.236,11.548,0
	c0.444-0.463,44.939-47.05,88.789-109.773c25.83-36.948,46.432-72.237,61.233-104.889c18.724-41.302,28.217-78.612,28.217-110.897
	C440.012,82.548,357.464,0,256,0z"/>
<path style="fill:#DB4D4D;" d="M185.939,392.334c-25.83-36.948-46.432-72.237-61.233-104.889
	c-18.722-41.302-28.216-78.612-28.216-110.897c0-78.365,49.246-145.434,118.411-171.916
	c-81.746,18.72-142.914,92.039-142.914,179.38c0,32.284,9.494,69.595,28.216,110.897c14.802,32.652,35.403,67.943,61.233,104.889
	c43.85,62.723,88.345,109.31,88.789,109.773c3.104,3.236,8.444,3.236,11.548,0c0.125-0.131,3.757-3.933,9.89-10.731
	C260.86,487.206,223.17,445.589,185.939,392.334z"/>
<path style="fill:#E4DAD8;" d="M256,39.003c-79.958,0-145.01,65.051-145.01,145.01s65.051,145.01,145.01,145.01
	s145.01-65.051,145.01-145.01S335.959,39.003,256,39.003z"/>
<path style="fill:#F2EDEC;" d="M256,55.504c-70.86,0-128.509,57.649-128.509,128.509S185.14,312.521,256,312.521
	s128.509-57.649,128.509-128.509S326.859,55.504,256,55.504z"/>
<g>
	<path style="fill:#FAD000;" d="M212.497,96.507L212.497,96.507c-2.209,0-4,1.791-4,4v160.011c0,6.627,5.373,12.001,12.001,12.001
		l0,0c6.627,0,12.001-5.373,12.001-12.001v-76.005h8.001c4.418,0,8.001-3.582,8.001-8.001v-44.003
		C248.499,112.626,232.381,96.507,212.497,96.507z"/>
	<path style="fill:#FAD000;" d="M320.504,96.507c-4.418,0-8.001,3.582-8.001,8.001v40.003h-8.001v-40.003
		c0-4.418-3.582-8.001-8.001-8.001s-8.001,3.582-8.001,8.001v40.003h-8.001v-40.003c0-4.418-3.582-8.001-8.001-8.001
		s-8.001,3.582-8.001,8.001v48.003c0,8.838,7.163,16.001,16.001,16.001h4v92.006c0,6.627,5.373,12.001,12.001,12.001
		s12.001-5.373,12.001-12.001v-92.006h4c8.838,0,16.001-7.163,16.001-16.001v-48.003C328.504,100.089,324.923,96.507,320.504,96.507
		z"/>
</g>
<g>
</g>
<g>
</g>
<g>
</g>
<g>
</g>
<g>
</g>
<g>
</g>
<g>
</g>
<g>
</g>
<g>
</g>
<g>
</g>
<g>
</g>
<g>
</g>
<g>
</g>
<g>
</g>
<g>
</g>
</svg>
